<?xml version="1.0" ?><svg viewBox="0 0 32 32" xmlns="http://www.w3.org/2000/svg"><defs><style>.cls-1{fill:#010101;}</style></defs><title/><g id="Gmail"><path class="cls-1" d="M27,6H5A3,3,0,0,0,2,9V19a1,1,0,0,0,2,0V9A1,1,0,0,1,5,8H6.87l8.57,5.83A1,1,0,0,0,16,14a1,1,0,0,0,.55-.17L25.3,8H27a1,1,0,0,1,1,1V23a1,1,0,0,1-1,1V10a1,1,0,0,0-.54-.89,1,1,0,0,0-1,.07L16,15.78,6.57,9.18A1,1,0,0,0,5,10l.14,14H5a1,1,0,0,1-1-1V22a1,1,0,0,0-2,0v1a3,3,0,0,0,3,3H27a3,3,0,0,0,3-3V9A3,3,0,0,0,27,6ZM16,11.79,10.43,8H21.7Zm-.58,6a1,1,0,0,0,1.14,0L25,11.92V24H7.74l6.42-4.49a1,1,0,0,0,.25-1.4,1,1,0,0,0-1.4-.24L7.12,22,7,11.93Z"/></g></svg>