<svg xmlns="http://www.w3.org/2000/svg" width="138" height="109" viewBox="0 0 138 109"><defs><style>.a{fill:#ffe3df;}</style></defs><g transform="translate(-106 -225)"><g transform="translate(134 225)"><path class="a" d="M37.045,5.112a5,5,0,0,1,7.91,0L75.765,44.941A5,5,0,0,1,71.811,53H10.189a5,5,0,0,1-3.955-8.059Z"/><path class="a" d="M0,0H32a0,0,0,0,1,0,0V40a5,5,0,0,1-5,5H5a5,5,0,0,1-5-5V0A0,0,0,0,1,0,0Z" transform="translate(25 52)"/><rect class="a" width="30" height="25" transform="translate(26 40)"/></g><g transform="translate(106 313)"><rect class="a" width="7" height="21" rx="2"/><path class="a" d="M2,0H5A2,2,0,0,1,7,2V19a2,2,0,0,1-2,2H0a0,0,0,0,1,0,0V2A2,2,0,0,1,2,0Z" transform="translate(131)"/><rect class="a" width="7" height="137" rx="3.5" transform="translate(137.5 14) rotate(90)"/></g></g></svg>